<?xml version="1.0" encoding="UTF-8" standalone="no"?>
<!-- Created with Inkscape (http://www.inkscape.org/) -->

<svg
   width="1920"
   height="1080"
   viewBox="0 0 508 285.75"
   version="1.1"
   id="svg1"
   xml:space="preserve"
   inkscape:version="1.3.2 (091e20e, 2023-11-25, custom)"
   sodipodi:docname="Room Template.svg"
   inkscape:export-filename="..\Reindeer Games\Assets\Sprites\SalmonRoom.png"
   inkscape:export-xdpi="300"
   inkscape:export-ydpi="300"
   xmlns:inkscape="http://www.inkscape.org/namespaces/inkscape"
   xmlns:sodipodi="http://sodipodi.sourceforge.net/DTD/sodipodi-0.dtd"
   xmlns:xlink="http://www.w3.org/1999/xlink"
   xmlns="http://www.w3.org/2000/svg"
   xmlns:svg="http://www.w3.org/2000/svg"><sodipodi:namedview
     id="namedview1"
     pagecolor="#ffffff"
     bordercolor="#666666"
     borderopacity="1.0"
     inkscape:showpageshadow="2"
     inkscape:pageopacity="0.0"
     inkscape:pagecheckerboard="0"
     inkscape:deskcolor="#d1d1d1"
     inkscape:document-units="mm"
     inkscape:zoom="2.7086912"
     inkscape:cx="2398.2062"
     inkscape:cy="669.51154"
     inkscape:window-width="1541"
     inkscape:window-height="1011"
     inkscape:window-x="2550"
     inkscape:window-y="0"
     inkscape:window-maximized="0"
     inkscape:current-layer="svg1"
     inkscape:export-bgcolor="#ffffff00" /><defs
     id="defs1"><linearGradient
       id="linearGradient65"
       inkscape:collect="always"><stop
         style="stop-color:#0b2ec4;stop-opacity:1;"
         offset="0"
         id="stop65" /><stop
         style="stop-color:#0077c8;stop-opacity:1;"
         offset="1"
         id="stop66" /></linearGradient><linearGradient
       id="linearGradient55"
       inkscape:collect="always"><stop
         style="stop-color:#ff6767;stop-opacity:1;"
         offset="0"
         id="stop55" /><stop
         style="stop-color:#881313;stop-opacity:1;"
         offset="1"
         id="stop56" /></linearGradient><linearGradient
       id="linearGradient47"
       inkscape:collect="always"><stop
         style="stop-color:#a05a2c;stop-opacity:1"
         offset="0"
         id="stop47" /><stop
         style="stop-color:#d38d5f;stop-opacity:1"
         offset="1"
         id="stop48" /></linearGradient><rect
       x="4.4301839"
       y="32.118832"
       width="229.6312"
       height="40.240837"
       id="rect203" /><rect
       x="0.36918199"
       y="0.73836398"
       width="238.86075"
       height="23.627647"
       id="rect202" /><linearGradient
       id="swatch183"><stop
         style="stop-color:#803300;stop-opacity:1;"
         offset="0"
         id="stop183" /></linearGradient><linearGradient
       id="swatch181"
       inkscape:label="Hat"><stop
         style="stop-color:#616161;stop-opacity:1;"
         offset="0"
         id="stop181" /></linearGradient><linearGradient
       id="swatch176"
       inkscape:label="Eyes"
       gradientTransform="matrix(1.0323354,0.14819433,-0.14819433,1.0323354,16.835983,-53.725111)"><stop
         style="stop-color:#ffffff;stop-opacity:1;"
         offset="0"
         id="stop176" /></linearGradient><linearGradient
       id="swatch175"
       inkscape:label="Pupils"
       gradientTransform="matrix(1.0323354,0.14819433,-0.14819433,1.0323354,16.835983,-53.725111)"><stop
         style="stop-color:#333333;stop-opacity:1;"
         offset="0"
         id="stop175" /></linearGradient><linearGradient
       id="swatch162"
       inkscape:label="Nostril"
       gradientTransform="matrix(1.0437548,0.30597251,-0.30597251,1.0437548,38.293231,-107.34592)"><stop
         style="stop-color:#1a1a1a;stop-opacity:1;"
         offset="0"
         id="stop162" /></linearGradient><linearGradient
       id="swatch160"
       inkscape:label="Fur"
       gradientTransform="matrix(1.03682,0.33050481,-0.43060928,1.3843439,73.395592,-243.70188)"><stop
         style="stop-color:#1a1a1a;stop-opacity:1;"
         offset="0"
         id="stop160" /></linearGradient><linearGradient
       id="swatch159"
       inkscape:label="Hat Under"><stop
         style="stop-color:#333333;stop-opacity:1;"
         offset="0"
         id="stop159" /></linearGradient><linearGradient
       id="swatch154"
       inkscape:label="Flesh"
       gradientTransform="matrix(1.4570359,1.0549156,-0.87864691,1.5462816,131.8753,-361.06629)"><stop
         style="stop-color:#5b4a49;stop-opacity:1;"
         offset="0"
         id="stop154" /></linearGradient><linearGradient
       id="swatch145"
       inkscape:label="Jacket"
       gradientTransform="translate(-4.2333335)"><stop
         style="stop-color:#3e3e3e;stop-opacity:1;"
         offset="0"
         id="stop145" /></linearGradient><linearGradient
       id="swatch140"
       inkscape:label="Buttons"><stop
         style="stop-color:#493d3d;stop-opacity:1;"
         offset="0"
         id="stop140" /></linearGradient><linearGradient
       id="swatch137"
       inkscape:label="Vest"><stop
         style="stop-color:#696969;stop-opacity:1;"
         offset="0"
         id="stop137" /></linearGradient><linearGradient
       id="swatch133"><stop
         style="stop-color:#333333;stop-opacity:1;"
         offset="0"
         id="stop133" /></linearGradient><linearGradient
       id="swatch129"><stop
         style="stop-color:#333333;stop-opacity:1;"
         offset="0"
         id="stop129" /></linearGradient><linearGradient
       id="swatch128"><stop
         style="stop-color:#333333;stop-opacity:1;"
         offset="0"
         id="stop128" /></linearGradient><linearGradient
       id="swatch126"><stop
         style="stop-color:#333333;stop-opacity:1;"
         offset="0"
         id="stop126" /></linearGradient><linearGradient
       id="swatch125"
       inkscape:label="Tie"
       inkscape:pinned="true"><stop
         style="stop-color:#252525;stop-opacity:1;"
         offset="0"
         id="stop125" /></linearGradient><linearGradient
       id="swatch122"><stop
         style="stop-color:#000000;stop-opacity:1;"
         offset="0"
         id="stop122" /></linearGradient><linearGradient
       id="swatch121"
       inkscape:label="Shirt"
       inkscape:pinned="true"><stop
         style="stop-color:#c9e8ff;stop-opacity:1;"
         offset="0"
         id="stop121" /></linearGradient><rect
       x="116.25853"
       y="42.90493"
       width="336.4805"
       height="86.510933"
       id="rect21" /><rect
       x="105.18629"
       y="120.41062"
       width="753.73376"
       height="134.0784"
       id="rect22" /><filter
       style="color-interpolation-filters:sRGB"
       inkscape:label="Drop Shadow"
       id="filter202"
       x="-0.018871697"
       y="-0.029759789"
       width="1.0812565"
       height="1.1087528"><feFlood
         result="flood"
         in="SourceGraphic"
         flood-opacity="0.498039"
         flood-color="rgb(0,0,0)"
         id="feFlood201" /><feGaussianBlur
         result="blur"
         in="SourceGraphic"
         stdDeviation="0.000000"
         id="feGaussianBlur201" /><feOffset
         result="offset"
         in="blur"
         dx="2.000000"
         dy="2.000000"
         id="feOffset201" /><feComposite
         result="comp1"
         operator="in"
         in="flood"
         in2="offset"
         id="feComposite201" /><feComposite
         result="comp2"
         operator="over"
         in="SourceGraphic"
         in2="comp1"
         id="feComposite202" /></filter><filter
       style="color-interpolation-filters:sRGB"
       inkscape:label="Drop Shadow"
       id="filter220"
       x="-0.0046514934"
       y="-0.0034592417"
       width="1.022332"
       height="1.0190625"><feFlood
         result="flood"
         in="SourceGraphic"
         flood-opacity="0.498039"
         flood-color="rgb(0,0,0)"
         id="feFlood219" /><feGaussianBlur
         result="blur"
         in="SourceGraphic"
         stdDeviation="0.000000"
         id="feGaussianBlur219" /><feOffset
         result="offset"
         in="blur"
         dx="0.700000"
         dy="0.700000"
         id="feOffset219" /><feComposite
         result="comp1"
         operator="in"
         in="flood"
         in2="offset"
         id="feComposite219" /><feComposite
         result="comp2"
         operator="over"
         in="SourceGraphic"
         in2="comp1"
         id="feComposite220" /></filter><filter
       style="color-interpolation-filters:sRGB"
       inkscape:label="Drop Shadow"
       id="filter2"
       x="0"
       y="0"
       width="1.0320805"
       height="1.0227947"><feFlood
         result="flood"
         in="SourceGraphic"
         flood-opacity="0.498039"
         flood-color="rgb(0,0,0)"
         id="feFlood1" /><feGaussianBlur
         result="blur"
         in="SourceGraphic"
         stdDeviation="0.000000"
         id="feGaussianBlur1" /><feOffset
         result="offset"
         in="blur"
         dx="2.000000"
         dy="2.000000"
         id="feOffset1" /><feComposite
         result="comp1"
         operator="in"
         in="flood"
         in2="offset"
         id="feComposite1" /><feComposite
         result="comp2"
         operator="over"
         in="SourceGraphic"
         in2="comp1"
         id="feComposite2" /></filter><filter
       style="color-interpolation-filters:sRGB"
       inkscape:label="Drop Shadow"
       id="filter7"
       x="0"
       y="0"
       width="1.0320805"
       height="1.0227947"><feFlood
         result="flood"
         in="SourceGraphic"
         flood-opacity="0.498039"
         flood-color="rgb(0,0,0)"
         id="feFlood6" /><feGaussianBlur
         result="blur"
         in="SourceGraphic"
         stdDeviation="0.000000"
         id="feGaussianBlur6" /><feOffset
         result="offset"
         in="blur"
         dx="2.000000"
         dy="2.000000"
         id="feOffset6" /><feComposite
         result="comp1"
         operator="in"
         in="flood"
         in2="offset"
         id="feComposite6" /><feComposite
         result="comp2"
         operator="atop"
         in="comp1"
         in2="comp1"
         id="feComposite7" /></filter><radialGradient
       inkscape:collect="always"
       xlink:href="#linearGradient47"
       id="radialGradient48"
       cx="604.22235"
       cy="196.11635"
       fx="604.22235"
       fy="196.11635"
       r="14.783644"
       gradientTransform="matrix(-0.68211905,-2.4948714,1.425384,-0.38971245,736.83281,1785.8461)"
       gradientUnits="userSpaceOnUse" /><radialGradient
       inkscape:collect="always"
       xlink:href="#linearGradient55"
       id="radialGradient56"
       cx="640.435"
       cy="199.82182"
       fx="640.435"
       fy="199.82182"
       r="8.3273048"
       gradientTransform="matrix(-0.31796106,-2.3992508,0.90359567,-0.11974914,663.51024,1759.7098)"
       gradientUnits="userSpaceOnUse" /><radialGradient
       inkscape:collect="always"
       xlink:href="#linearGradient65"
       id="radialGradient66"
       cx="660.70349"
       cy="175.43221"
       fx="660.70349"
       fy="175.43221"
       r="11.937374"
       gradientUnits="userSpaceOnUse"
       gradientTransform="matrix(1.3092229,-0.02454772,0.01874512,0.99982429,-207.59312,16.249587)" /></defs><g
     id="g10"
     transform="translate(-567.32196,-381.34038)"><path
       style="font-variation-settings:normal;opacity:1;vector-effect:none;fill:none;fill-opacity:1;stroke:#000000;stroke-width:0.499999;stroke-linecap:butt;stroke-linejoin:miter;stroke-miterlimit:4;stroke-dasharray:none;stroke-dashoffset:0;stroke-opacity:1;-inkscape-stroke:none;stop-color:#000000;stop-opacity:1"
       d="M 0,0 H 508 V 285.75 H 0 Z"
       id="path4"
       sodipodi:nodetypes="ccccc" /><path
       style="font-variation-settings:normal;opacity:1;vector-effect:none;fill:none;fill-opacity:1;stroke:#000000;stroke-width:0.499999;stroke-linecap:butt;stroke-linejoin:miter;stroke-miterlimit:4;stroke-dasharray:none;stroke-dashoffset:0;stroke-opacity:1;-inkscape-stroke:none;stop-color:#000000;stop-opacity:1"
       d="M 0,0 134.88998,77.878767"
       id="path6" /><path
       style="font-variation-settings:normal;opacity:1;vector-effect:none;fill:none;fill-opacity:1;stroke:#000000;stroke-width:0.499999;stroke-linecap:butt;stroke-linejoin:miter;stroke-miterlimit:4;stroke-dasharray:none;stroke-dashoffset:0;stroke-opacity:1;-inkscape-stroke:none;stop-color:#000000;stop-opacity:1"
       d="M 508,0 373.11002,77.878767"
       id="path7" /><path
       style="font-variation-settings:normal;opacity:1;vector-effect:none;fill:none;fill-opacity:1;stroke:#000000;stroke-width:0.499999;stroke-linecap:butt;stroke-linejoin:miter;stroke-miterlimit:4;stroke-dasharray:none;stroke-dashoffset:0;stroke-opacity:1;-inkscape-stroke:none;stop-color:#000000;stop-opacity:1"
       d="M 0,285.75 134.88998,207.87123"
       id="path8" /><path
       style="font-variation-settings:normal;opacity:1;vector-effect:none;fill:none;fill-opacity:1;stroke:#000000;stroke-width:0.499999;stroke-linecap:butt;stroke-linejoin:miter;stroke-miterlimit:4;stroke-dasharray:none;stroke-dashoffset:0;stroke-opacity:1;-inkscape-stroke:none;stop-color:#000000;stop-opacity:1"
       d="M 508,285.75 373.11002,207.87123"
       id="path9" /><path
       style="font-variation-settings:normal;opacity:1;vector-effect:none;fill:none;fill-opacity:1;stroke:#000000;stroke-width:0.499999;stroke-linecap:butt;stroke-linejoin:miter;stroke-miterlimit:4;stroke-dasharray:none;stroke-dashoffset:0;stroke-opacity:1;-inkscape-stroke:none;stop-color:#000000;stop-opacity:1"
       d="M 134.88998,77.878767 H 373.11001 V 207.87123 H 134.88998 V 77.878767"
       id="path10" /></g><g
     id="g21"><g
       id="g16"><path
         style="font-variation-settings:normal;opacity:1;vector-effect:none;fill:none;fill-opacity:1;stroke:#000000;stroke-width:0.499999;stroke-linecap:butt;stroke-linejoin:miter;stroke-miterlimit:4;stroke-dasharray:none;stroke-dashoffset:0;stroke-opacity:1;-inkscape-stroke:none;stop-color:#000000;stop-opacity:1"
         d="M 0,0 H 508 V 285.75 H 0 Z"
         id="path11"
         sodipodi:nodetypes="ccccc" /><path
         style="font-variation-settings:normal;opacity:1;vector-effect:none;fill:none;fill-opacity:1;stroke:#000000;stroke-width:0.499999;stroke-linecap:butt;stroke-linejoin:miter;stroke-miterlimit:4;stroke-dasharray:none;stroke-dashoffset:0;stroke-opacity:1;-inkscape-stroke:none;stop-color:#000000;stop-opacity:1"
         d="M 0,0 134.88998,77.878767"
         id="path12" /><path
         style="font-variation-settings:normal;opacity:1;vector-effect:none;fill:none;fill-opacity:1;stroke:#000000;stroke-width:0.499999;stroke-linecap:butt;stroke-linejoin:miter;stroke-miterlimit:4;stroke-dasharray:none;stroke-dashoffset:0;stroke-opacity:1;-inkscape-stroke:none;stop-color:#000000;stop-opacity:1"
         d="M 508,0 373.11002,77.878767"
         id="path13" /><path
         style="font-variation-settings:normal;opacity:1;vector-effect:none;fill:none;fill-opacity:1;stroke:#000000;stroke-width:0.499999;stroke-linecap:butt;stroke-linejoin:miter;stroke-miterlimit:4;stroke-dasharray:none;stroke-dashoffset:0;stroke-opacity:1;-inkscape-stroke:none;stop-color:#000000;stop-opacity:1"
         d="M 0,285.75 134.88998,207.87123"
         id="path14" /><path
         style="font-variation-settings:normal;opacity:1;vector-effect:none;fill:none;fill-opacity:1;stroke:#000000;stroke-width:0.499999;stroke-linecap:butt;stroke-linejoin:miter;stroke-miterlimit:4;stroke-dasharray:none;stroke-dashoffset:0;stroke-opacity:1;-inkscape-stroke:none;stop-color:#000000;stop-opacity:1"
         d="M 508,285.75 373.11002,207.87123"
         id="path15" /><path
         style="font-variation-settings:normal;opacity:1;vector-effect:none;fill:none;fill-opacity:1;stroke:#000000;stroke-width:0.499999;stroke-linecap:butt;stroke-linejoin:miter;stroke-miterlimit:4;stroke-dasharray:none;stroke-dashoffset:0;stroke-opacity:1;-inkscape-stroke:none;stop-color:#000000;stop-opacity:1"
         d="M 134.88998,77.878767 H 373.11001 V 207.87123 H 134.88998 V 77.878767"
         id="path16" /></g><path
       style="fill:#c8b7b7;stroke:#000000;stroke-width:1.47673;paint-order:fill markers stroke"
       d="M 5.1008134,283.77591 C 5.9485757,283.19444 35.681255,265.96379 71.173434,245.48559 l 64.531236,-37.23311 118.32461,0.003 118.32458,0.003 65.47721,37.79867 c 36.01246,20.78928 65.69723,38.01871 65.96615,38.28764 0.26892,0.26894 -112.17455,0.48897 -249.87442,0.48897 -210.687032,0 -250.1191014,-0.16756 -248.8219866,-1.05722 z"
       id="path17" /><path
       style="fill:#e6e6e6;stroke:#000000;stroke-width:1.47673;paint-order:fill markers stroke"
       d="M 69.325881,39.173814 C 33.316449,18.38702 3.6316803,1.1571355 3.3597257,0.88518073 3.0877708,0.61322603 116.04838,0.39071761 254.3833,0.39071761 H 505.90135 L 439.57324,38.681043 373.24511,76.971368 254.02134,76.96978 134.79757,76.968193 Z"
       id="path18" /><path
       style="fill:#e9afaf;stroke:#000000;stroke-width:1.47673;paint-order:fill markers stroke"
       d="M 0.7814352,142.75492 V 1.2909331 L 14.261193,9.0588837 C 21.675059,13.331257 51.652868,30.635342 80.878544,47.512409 l 53.137596,30.685575 v 64.673336 64.67332 L 68.375579,245.47941 C 32.273274,266.34352 2.2954659,283.59523 1.7582292,283.81653 0.97890943,284.13757 0.7814352,255.61975 0.7814352,142.75492 Z"
       id="path19" /><path
       style="fill:#e9afaf;stroke:#000000;stroke-width:1.47673;paint-order:fill markers stroke"
       d="m 439.74816,245.58538 -66.23111,-38.32991 0.19984,-64.50061 0.19987,-64.500604 66.03126,-38.135861 C 476.26521,19.14367 506.24303,1.9760193 506.56537,1.9680598 c 0.32234,-0.00796 0.58608,63.4576032 0.58608,141.0345802 0,77.57698 -0.26374,141.01836 -0.58608,140.98084 -0.32234,-0.0375 -30.39009,-17.31666 -66.81721,-38.3981 z"
       id="path20" /><path
       style="fill:#de8787;stroke:#000000;stroke-width:1.47673;paint-order:fill markers stroke"
       d="M 135.18829,143.00264 V 78.534238 H 253.96644 372.7446 v 64.468402 64.46841 H 253.96644 135.18829 Z"
       id="path21" /></g><g
     id="g32"
     transform="translate(-610.02419,143.17382)"><g
       id="g27"><path
         style="font-variation-settings:normal;opacity:1;vector-effect:none;fill:none;fill-opacity:1;stroke:#000000;stroke-width:0.499999;stroke-linecap:butt;stroke-linejoin:miter;stroke-miterlimit:4;stroke-dasharray:none;stroke-dashoffset:0;stroke-opacity:1;-inkscape-stroke:none;stop-color:#000000;stop-opacity:1"
         d="M 0,0 H 508 V 285.75 H 0 Z"
         id="path22"
         sodipodi:nodetypes="ccccc" /><path
         style="font-variation-settings:normal;opacity:1;vector-effect:none;fill:none;fill-opacity:1;stroke:#000000;stroke-width:0.499999;stroke-linecap:butt;stroke-linejoin:miter;stroke-miterlimit:4;stroke-dasharray:none;stroke-dashoffset:0;stroke-opacity:1;-inkscape-stroke:none;stop-color:#000000;stop-opacity:1"
         d="M 0,0 134.88998,77.878767"
         id="path23" /><path
         style="font-variation-settings:normal;opacity:1;vector-effect:none;fill:none;fill-opacity:1;stroke:#000000;stroke-width:0.499999;stroke-linecap:butt;stroke-linejoin:miter;stroke-miterlimit:4;stroke-dasharray:none;stroke-dashoffset:0;stroke-opacity:1;-inkscape-stroke:none;stop-color:#000000;stop-opacity:1"
         d="M 508,0 373.11002,77.878767"
         id="path24" /><path
         style="font-variation-settings:normal;opacity:1;vector-effect:none;fill:none;fill-opacity:1;stroke:#000000;stroke-width:0.499999;stroke-linecap:butt;stroke-linejoin:miter;stroke-miterlimit:4;stroke-dasharray:none;stroke-dashoffset:0;stroke-opacity:1;-inkscape-stroke:none;stop-color:#000000;stop-opacity:1"
         d="M 0,285.75 134.88998,207.87123"
         id="path25" /><path
         style="font-variation-settings:normal;opacity:1;vector-effect:none;fill:none;fill-opacity:1;stroke:#000000;stroke-width:0.499999;stroke-linecap:butt;stroke-linejoin:miter;stroke-miterlimit:4;stroke-dasharray:none;stroke-dashoffset:0;stroke-opacity:1;-inkscape-stroke:none;stop-color:#000000;stop-opacity:1"
         d="M 508,285.75 373.11002,207.87123"
         id="path26" /><path
         style="font-variation-settings:normal;opacity:1;vector-effect:none;fill:none;fill-opacity:1;stroke:#000000;stroke-width:0.499999;stroke-linecap:butt;stroke-linejoin:miter;stroke-miterlimit:4;stroke-dasharray:none;stroke-dashoffset:0;stroke-opacity:1;-inkscape-stroke:none;stop-color:#000000;stop-opacity:1"
         d="M 134.88998,77.878767 H 373.11001 V 207.87123 H 134.88998 V 77.878767"
         id="path27" /></g><path
       style="fill:#c8b7b7;stroke:#000000;stroke-width:1.47673;paint-order:fill markers stroke"
       d="M 5.1008134,283.77591 C 5.9485757,283.19444 35.681255,265.96379 71.173434,245.48559 l 64.531236,-37.23311 118.32461,0.003 118.32458,0.003 65.47721,37.79867 c 36.01246,20.78928 65.69723,38.01871 65.96615,38.28764 0.26892,0.26894 -112.17455,0.48897 -249.87442,0.48897 -210.687032,0 -250.1191014,-0.16756 -248.8219866,-1.05722 z"
       id="path28" /><path
       style="fill:#e6e6e6;stroke:#000000;stroke-width:1.47673;paint-order:fill markers stroke"
       d="M 69.325881,39.173814 C 33.316449,18.38702 3.6316803,1.1571355 3.3597257,0.88518073 3.0877708,0.61322603 116.04838,0.39071761 254.3833,0.39071761 H 505.90135 L 439.57324,38.681043 373.24511,76.971368 254.02134,76.96978 134.79757,76.968193 Z"
       id="path29" /><path
       style="fill:#e9afaf;stroke:#000000;stroke-width:1.47673;paint-order:fill markers stroke"
       d="M 0.7814352,142.75492 V 1.2909331 L 14.261193,9.0588837 C 21.675059,13.331257 51.652868,30.635342 80.878544,47.512409 l 53.137596,30.685575 v 64.673336 64.67332 L 68.375579,245.47941 C 32.273274,266.34352 2.2954659,283.59523 1.7582292,283.81653 0.97890943,284.13757 0.7814352,255.61975 0.7814352,142.75492 Z"
       id="path30" /><path
       style="fill:#e9afaf;stroke:#000000;stroke-width:1.47673;paint-order:fill markers stroke"
       d="m 439.74816,245.58538 -66.23111,-38.32991 0.19984,-64.50061 0.19987,-64.500604 66.03126,-38.135861 C 476.26521,19.14367 506.24303,1.9760193 506.56537,1.9680598 c 0.32234,-0.00796 0.58608,63.4576032 0.58608,141.0345802 0,77.57698 -0.26374,141.01836 -0.58608,140.98084 -0.32234,-0.0375 -30.39009,-17.31666 -66.81721,-38.3981 z"
       id="path31" /><path
       style="fill:#de8787;stroke:#000000;stroke-width:1.47673;paint-order:fill markers stroke"
       d="M 135.18829,143.00264 V 78.534238 H 253.96644 372.7446 v 64.468402 64.46841 H 253.96644 135.18829 Z"
       id="path32" /></g><path
     d="m 168.8364,358.06024 c -26.13285,-0.1994 -61.1368,37.82331 -34.0124,51.3855 16.28261,8.1413 36.64522,10.96268 51.9405,3.31504 5.40446,-2.70224 3.09053,-10.82598 5.52576,-13.26121 2.23443,-2.23442 39.38873,-1.10535 49.7303,-1.10535 4.29744,0 21.97718,-2.33503 24.31221,0 7.2256,7.2256 -9.24582,15.47192 7.73596,15.47192 h 12.15637 c 8.80723,0 -1.20779,-16.57677 9.94616,-16.57677 1.3504,0 5.83635,-0.79428 6.6306,0 2.94698,2.94695 -2.94697,14.73465 0,17.68161 1.30239,1.30241 3.6839,0 5.52576,0 17.0242,0 13.73761,-5.13503 22.10201,-17.68161 5.65187,-8.47782 -2.83563,-21.62262 -6.6306,-25.41757 -2.83874,-2.83875 -119.04165,4.34233 -132.61413,7.73545 -3.25539,-15.53879 -12.12261,-21.46898 -22.3485,-21.54701 z m -13.01523,21.54701 c 4.44125,0 5.80457,0.67441 9.94616,3.31556 19.74139,14.80606 -12.75549,25.92329 -23.20737,15.47141 -7.54442,-7.54446 6.70067,-18.78697 13.26121,-18.78697 z"
     style="opacity:1;vector-effect:none;fill:#ffff00;stroke:#000000;stroke-width:0.499999;stop-color:#000000;stop-opacity:1"
     id="path37"
     inkscape:export-filename="..\Reindeer Games\Assets\Sprites\key.png"
     inkscape:export-xdpi="36.669777"
     inkscape:export-ydpi="36.669777" /><g
     id="g50"><path
       style="font-variation-settings:normal;fill:#f9f9f9;fill-opacity:1;stroke:#000000;stroke-width:0.499975;stroke-linecap:butt;stroke-linejoin:miter;stroke-miterlimit:4;stroke-dasharray:none;stroke-dashoffset:0;stroke-opacity:1;stop-color:#000000"
       d="m 553.29754,193.07559 c 0.1153,-0.20195 0.73992,-1.55252 1.32049,-2.00446 0.96714,-0.75286 2.95309,-1.37374 3.43324,-2.77539 0.72205,-2.10775 -2.15457,-1.18468 -2.77301,-0.46256 -0.47475,0.55436 -1.85075,3.23795 -2.50891,3.23795 -0.35486,0 1.1643,-3.33579 1.18843,-3.39215 0.32388,-0.75635 1.30548,-0.94176 1.71663,-1.54188 0.35301,-0.51525 0.58725,-1.48922 0.39615,-2.15864 -0.22833,-0.79982 -3.22709,2.2601 -3.43325,2.62121 -0.44873,0.78595 -0.66675,1.809 -1.18844,2.6212 -0.13468,0.20966 0.0924,0.77094 -0.13204,0.77094 -0.59655,0 2.65256,-8.32618 1.84866,-8.32618 -2.89514,0 -2.65746,4.20164 -3.56529,6.32174 -0.32517,0.7594 -0.23572,2.00444 -0.2641,2.00444 -0.649,0 1.29117,-8.40039 0.39615,-9.09712 -0.7828,-0.60938 -3.02742,3.5011 -3.16916,4.16308 -0.39979,1.86737 0.44357,3.9383 0.26411,5.70499 -0.73592,-1.63954 -4.80813,-1.05216 -3.82939,1.23351 0.22084,0.51575 1.35658,0.65892 1.71662,1.07932 1.02431,1.19607 -0.15679,2.76095 1.45253,3.70053 1.00139,0.58464 5.15068,0.77 6.0742,-0.30838 0.50047,-0.58439 0.0517,-1.91074 0.39615,-2.31283 0.30834,-0.36004 0.66023,-0.25559 0.66023,-1.07932 z"
       id="path38"
       inkscape:export-filename="..\Reindeer Games\Assets\Sprites\hand-cursor.png"
       inkscape:export-xdpi="300"
       inkscape:export-ydpi="300" /><path
       style="font-variation-settings:normal;vector-effect:none;fill:#ffffff;fill-opacity:1;stroke:#000000;stroke-width:0.472416;stroke-linecap:butt;stroke-linejoin:miter;stroke-miterlimit:4;stroke-dasharray:none;stroke-dashoffset:0;stroke-opacity:1;-inkscape-stroke:none;stop-color:#000000"
       d="m 541.71629,180.88652 v 5.06377 l 4.72494,-5.06377 z"
       id="path39" /></g><g
     id="g51"
     transform="translate(-17.129302,-0.69069767)"><path
       style="font-variation-settings:normal;vector-effect:none;fill:#ffffff;fill-opacity:1;stroke:#000000;stroke-width:0.472416;stroke-linecap:butt;stroke-linejoin:miter;stroke-miterlimit:4;stroke-dasharray:none;stroke-dashoffset:0;stroke-opacity:1;-inkscape-stroke:none;stop-color:#000000"
       d="m 589.26476,180.94011 v 5.06376 l 4.72495,-5.06376 z"
       id="path48" /><g
       id="g49"
       transform="matrix(0.56217357,0,0,0.38288171,261.06072,118.73347)"><path
         style="font-variation-settings:normal;opacity:1;vector-effect:none;fill:url(#radialGradient48);fill-opacity:1;stroke:none;stroke-width:0.499999;stroke-linecap:butt;stroke-linejoin:miter;stroke-miterlimit:4;stroke-dasharray:none;stroke-dashoffset:0;stroke-opacity:1;-inkscape-stroke:none;stop-color:#000000;stop-opacity:1"
         d="m 607.67581,162.03767 c 0,0 -21.27351,19.33954 -22.93117,23.76 -1.65767,4.42047 -2.07209,10.22233 3.31536,13.53768 5.38744,3.31534 12.01814,7.59767 17.12928,6.07814 5.11117,-1.51954 10.36984,-4.93683 6.90699,-10.91303 -4.28233,-7.39047 -4.00605,-13.95209 -3.95425,-20.18563 0.0518,-6.23355 0.98426,-10.75762 0.22449,-11.31018"
         id="path47"
         sodipodi:nodetypes="csssssc" /><path
         style="font-variation-settings:normal;opacity:1;vector-effect:none;fill:none;fill-opacity:1;stroke:#000000;stroke-width:0.499999;stroke-linecap:butt;stroke-linejoin:miter;stroke-miterlimit:4;stroke-dasharray:none;stroke-dashoffset:0;stroke-opacity:1;-inkscape-stroke:none;stop-color:#000000;stop-opacity:1"
         d="m 607.67581,162.03767 c 0,0 -21.27351,19.33954 -22.93117,23.76 -1.65767,4.42047 -2.07209,10.22233 3.31536,13.53768 5.38744,3.31534 12.01814,7.59767 17.12928,6.07814 5.11117,-1.51954 8.533,-2.64433 8.01211,-9.53163 -1.24327,-16.43861 -12.15628,-6.21628 -13.67581,-7.3214"
         id="path45"
         sodipodi:nodetypes="cssssc" /><path
         style="font-variation-settings:normal;opacity:1;vector-effect:none;fill:#000000;fill-opacity:1;stroke:#000000;stroke-width:0.499999;stroke-linecap:butt;stroke-linejoin:miter;stroke-miterlimit:4;stroke-dasharray:none;stroke-dashoffset:0;stroke-opacity:1;-inkscape-stroke:none;stop-color:#000000;stop-opacity:1"
         d="m 590.5465,198.78279 c 0.82883,0.13814 11.32745,-4.28233 13.12325,3.03907 1.79581,7.32139 -13.12325,-3.03907 -13.12325,-3.03907 z"
         id="path46" /></g></g><path
     style="font-variation-settings:normal;vector-effect:none;fill:#ffffff;fill-opacity:1;stroke:#000000;stroke-width:0.472416;stroke-linecap:butt;stroke-linejoin:miter;stroke-miterlimit:4;stroke-dasharray:none;stroke-dashoffset:0;stroke-opacity:1;-inkscape-stroke:none;stop-color:#000000"
     d="m 564.37117,151.04838 v 5.06376 l 4.72495,-5.06376 z"
     id="path49" /><g
     id="g62"
     inkscape:export-filename="..\Reindeer Games\Assets\Sprites\mouth-cursor.png"
     inkscape:export-xdpi="96.211037"
     inkscape:export-ydpi="96.211037"><g
       id="g61"
       transform="matrix(0.56442543,0.15980158,-0.13455898,0.67030881,275.01219,-40.237656)"><path
         style="font-variation-settings:normal;opacity:1;vector-effect:none;fill:#000000;fill-opacity:1;stroke:#000000;stroke-width:0.499999;stroke-linecap:butt;stroke-linejoin:miter;stroke-miterlimit:4;stroke-dasharray:none;stroke-dashoffset:0;stroke-opacity:1;-inkscape-stroke:none;stop-color:#000000;stop-opacity:1"
         d="m 627.0844,185.93581 c 0,0 5.38745,10.63675 10.29139,9.66977 4.90397,-0.96698 11.81095,-8.01209 11.94909,-10.22233 0.13814,-2.21023 -0.4835,-2.69372 -11.46559,-1.72674 -10.98209,0.96698 -11.32745,0.13814 -10.77489,2.2793 z"
         id="path53" /><path
         style="font-variation-settings:normal;opacity:1;vector-effect:none;fill:#000000;fill-opacity:1;stroke:#000000;stroke-width:0.499999;stroke-linecap:butt;stroke-linejoin:miter;stroke-miterlimit:4;stroke-dasharray:none;stroke-dashoffset:0;stroke-opacity:1;-inkscape-stroke:none;stop-color:#000000;stop-opacity:1"
         d="m 631.61941,184.12567 0.21979,3.39436"
         id="path57" /><path
         style="font-variation-settings:normal;opacity:1;vector-effect:none;fill:url(#radialGradient56);fill-opacity:1;stroke:#000000;stroke-width:0.499999;stroke-linecap:butt;stroke-linejoin:miter;stroke-miterlimit:4;stroke-dasharray:none;stroke-dashoffset:0;stroke-opacity:1;-inkscape-stroke:none;stop-color:#000000;stop-opacity:1"
         d="m 630.95232,186.4193 c 0,0 -0.069,7.80488 2.62464,10.4986 2.69372,2.69373 5.80186,3.86791 7.45955,3.24628 1.65767,-0.62162 5.45651,-2.62465 5.87092,-8.84093 0.41442,-6.21628 -1.45047,-5.66372 -1.45047,-5.66372"
         id="path51"
         sodipodi:nodetypes="csssc" /><path
         style="font-variation-settings:normal;opacity:1;vector-effect:none;fill:none;fill-opacity:1;stroke:#800000;stroke-width:0.499999;stroke-linecap:butt;stroke-linejoin:miter;stroke-miterlimit:4;stroke-dasharray:none;stroke-dashoffset:0;stroke-opacity:1;-inkscape-stroke:none;stop-color:#000000;stop-opacity:1"
         d="m 638.13557,187.66256 c 0,0 3.10814,4.14418 2.34836,6.56162"
         id="path56" /><path
         style="font-variation-settings:normal;opacity:1;vector-effect:none;fill:#ececec;fill-opacity:1;stroke:#000000;stroke-width:0.499999;stroke-linecap:butt;stroke-linejoin:miter;stroke-miterlimit:4;stroke-dasharray:none;stroke-dashoffset:0;stroke-opacity:1;-inkscape-stroke:none;stop-color:#000000;stop-opacity:1"
         d="m 628.53487,184.62349 1.51953,2.14116 c 0,0 5.52559,1.10511 7.45956,0.89791 1.93394,-0.20721 8.77183,-1.51954 9.73883,-2.41745 0.96698,-0.8979 0.82882,-1.79581 0.82882,-1.79581 z"
         id="path54"
         sodipodi:nodetypes="ccsscc" /></g><path
       style="font-variation-settings:normal;vector-effect:none;fill:#ffffff;fill-opacity:1;stroke:#000000;stroke-width:0.472416;stroke-linecap:butt;stroke-linejoin:miter;stroke-miterlimit:4;stroke-dasharray:none;stroke-dashoffset:0;stroke-opacity:1;-inkscape-stroke:none;stop-color:#000000"
       d="m 600.15634,179.8875 v 5.06376 l 4.72495,-5.06376 z"
       id="path61" /></g><circle
     id="path77"
     style="fill:#000000;stroke:#000000;stroke-width:0.264583"
     cx="626.73907"
     cy="146.4279"
     r="0.0051750522" /><g
     id="g86"
     transform="translate(-3.0280614,5.1770083)"
     inkscape:export-filename="..\Reindeer Games\Assets\Sprites\eye-cursor.png"
     inkscape:export-xdpi="96.211037"
     inkscape:export-ydpi="96.211037"><g
       id="g78"
       transform="matrix(0.3767892,0,0,0.56853632,398.89269,82.447955)"
       style="stroke-width:1.14331;stroke-dasharray:none"><path
         style="font-variation-settings:normal;fill:#ffffff;fill-opacity:1;stroke:#000000;stroke-width:1.14331;stroke-linecap:butt;stroke-linejoin:miter;stroke-miterlimit:4;stroke-dasharray:none;stroke-dashoffset:0;stroke-opacity:1;stop-color:#000000"
         d="m 637.79023,177.37116 c 0,0 9.1172,-15.88605 21.41162,-16.30046 12.29442,-0.41442 16.30045,1.79581 20.30651,5.38744 4.00605,3.59162 2.0721,11.46557 1.24326,13.81395 -0.82883,2.34837 -12.70885,10.63674 -20.85907,9.80791 -8.15023,-0.82884 -23.48373,-8.42652 -22.10232,-12.70884 z"
         id="path62"
         sodipodi:nodetypes="cssssc" /><circle
         style="fill:url(#radialGradient66);fill-opacity:1;stroke:#000000;stroke-width:1.14331;stroke-dasharray:none;paint-order:fill markers stroke"
         id="path64"
         cx="660.23792"
         cy="174.81558"
         r="11.672791" /><circle
         style="fill:#000000;fill-opacity:1;stroke:#000000;stroke-width:1.14331;stroke-dasharray:none;paint-order:fill markers stroke"
         id="path65"
         cx="660.23792"
         cy="174.81558"
         r="2.7627907" /></g><path
       style="font-variation-settings:normal;vector-effect:none;fill:#ffffff;fill-opacity:1;stroke:#000000;stroke-width:0.472416;stroke-linecap:butt;stroke-linejoin:miter;stroke-miterlimit:4;stroke-dasharray:none;stroke-dashoffset:0;stroke-opacity:1;-inkscape-stroke:none;stop-color:#000000"
       d="m 639.19359,173.90536 v 5.06376 l 4.72495,-5.06376 z"
       id="path86" /></g></svg>
